<svg id="Capa_1" data-name="Capa 1" xmlns="http://www.w3.org/2000/svg" viewBox="0 0 551.75 500"><defs><style>.cls-1{fill:#fcfbef;}.cls-2{fill:#fbfbfa;}.cls-3{fill:#8e6e4a;}</style></defs><path class="cls-1" d="M101.37,205.52s-3,1.89-5.85,0c0,0-19.63-5.66-15.86,11.89,0,0,1.89,1.89,3.21-1.51,0,0,3.4-7.74,9.25-1.32v66.26S91.37,294.05,78.53,298c0,0-2.08,3.77,6.8,2.26s11.7-7.55,12.83-8.49a18.68,18.68,0,0,1,11.71-3.21s.94.38-3.21-4.15a236.31,236.31,0,0,1-1-35.11s38.32,6.79,39.08-23S117.23,198,101.37,205.52Zm4.16,39.08V211.18s15.1-9.06,22.27,3.78S126.29,248,105.53,244.6Z"/><path class="cls-1" d="M171.36,216.09c-13.38,0-24.22,14.33-24.22,32s10.84,32,24.22,32,24.21-14.32,24.21-32S184.73,216.09,171.36,216.09ZM171,275.18c-6.15,0-11.14-12.13-11.14-27.09S164.88,221,171,221s11.14,12.13,11.14,27.09S177.18,275.18,171,275.18Z"/><path class="cls-1" d="M420.14,216.09c-13.37,0-24.21,14.33-24.21,32s10.84,32,24.21,32,24.22-14.32,24.22-32S433.51,216.09,420.14,216.09Zm-.32,59.09c-6.16,0-11.14-12.13-11.14-27.09s5-27.09,11.14-27.09S431,233.13,431,248.09,426,275.18,419.82,275.18Z"/><path class="cls-1" d="M228.93,224.4a19.05,19.05,0,0,1,16.67,14s3.77,0,2.26-7-3-7.93-3.58-8.49,4-5.48,3-6.8c0,0-7,.38-10.39,1.51a10.56,10.56,0,0,1-8-.35,4.05,4.05,0,0,0-1.93-.78h-8.86a3.73,3.73,0,0,0-2.18.9,10.61,10.61,0,0,1-7.74.23c-3.4-1.13-10.39-1.51-10.39-1.51-.94,1.32,3.59,6.23,3,6.8s-2.07,1.51-3.58,8.49,2.26,7,2.26,7a19,19,0,0,1,16.43-14v50.87c-1,.61-5.25,3.45-3.4,4.79s5.36.13,9-1.32h2.92c3.6,1.45,7,2.77,9,1.32s-4.49-5.56-4.49-5.56Z"/><path class="cls-1" d="M293,267.59c-1.27-7.35-8.78-16.86-8.78-16.86,5.95-3.26,15-6.37,12.6-21.8s-27.89-12.46-31-11.47a33.75,33.75,0,0,1-8.35.92c-6.22-4.15-8.36-.78-8.36-.78,1.85.33,3.68,3.4,3.68,3.4l.07,54.22c-1.06.29-5.31,2.84-3.75,4.32s5.31.78,6.51-.07,5-2.05,7.58-.28,6.55,1.84,7.43-1c.31-1-3.89-2.2-3.89-2.2l-.07-23.43a13.79,13.79,0,0,1,7.08.71c3.11,1.42,6.79,17.84,6.79,17.84,10.05,15.57,20.53,6.79,20.53,6.79C298,276.92,294.3,274.94,293,267.59Zm-19.39-20.12a12.27,12.27,0,0,1-6.8.9V223.26s13.73-7.22,17.13,6S276.74,245.92,273.63,247.47Z"/><path class="cls-1" d="M390,267.59c-1.27-7.35-8.78-16.86-8.78-16.86,5.95-3.26,15-6.37,12.6-21.8s-27.89-12.46-31-11.47a33.75,33.75,0,0,1-8.35.92c-6.22-4.15-8.36-.78-8.36-.78,1.85.33,3.68,3.4,3.68,3.4l.07,54.22c-1.06.29-5.3,2.84-3.75,4.32s5.31.78,6.52-.07,5-2.05,7.57-.28,6.55,1.84,7.43-1c.31-1-3.89-2.2-3.89-2.2l-.07-23.43a13.79,13.79,0,0,1,7.08.71c3.11,1.42,6.79,17.84,6.79,17.84,10.06,15.57,20.53,6.79,20.53,6.79C395,276.92,391.28,274.94,390,267.59Zm-19.39-20.12a12.27,12.27,0,0,1-6.8.9V223.26s13.73-7.22,17.13,6S373.72,245.92,370.61,247.47Z"/><path class="cls-1" d="M333.21,268.14c-7.39,8.51-10.78,7.18-13.86,5.52V245.34c3.47-.05,5.1,4.12,5.1,4.12,7.79,6.37,13,1.13,15.58-2.13s3.25-9.34,1-6.59-9.35,3.76-12,.79c-2.07-2.29-7.31-1.56-9.63-1.1V222.34c3.08-1.67,6.47-3,13.86,5.51,8.87,10.22,13.47,4.48,13.47,4.48-2.41-.43-4.81-1.28-4.39-9.63s-1-7.25-1-7.25a12.22,12.22,0,0,1-9.77,2.91c-.85-1-9.2-4.53-13.17-2.05s-9.77,1.15-9.77,1.15c-4.95-2.41-6.37.71-6.37.71a9,9,0,0,1,2.57,1.81v56a9,9,0,0,1-2.57,1.81s1.42,3.11,6.37.7c0,0,5.81-1.33,9.77,1.15s12.32-1.09,13.17-2a12.18,12.18,0,0,1,9.77,2.91s1.42,1.1,1-7.25,2-9.21,4.39-9.63C346.68,263.67,342.08,257.93,333.21,268.14Z"/><path class="cls-1" d="M487,222.7s6.37-.71,6.66,1-6.23,3.54-7.65,7.08-3.54,5.57-8.07,4.13c0,0-.14-1.72,2.27-3.57s-2.2-14.36-15.43-10c-3.88,1.26-14.07,11.65,5.27,15.41,7.24,1.41,22.2,3.27,23.75,20s-8.25,27.5-32.14,22.51c-19.54-4.08-17.56-27.75-4.53-27.18,0,0,10.05,1,5.95,5.23s-6.52,3.43-4.39,10.35,17.13,12.59,22.22,1.55-2.71-16.73-10.41-18.49-25.69-4.45-24.13-19.32S475.8,209.67,487,222.7Z"/><path class="cls-2" d="M218.79,432.23,198,356.35l3.21-.38c3.78-2.64,1.13-6.42,0-5.29s-11.7,3.59-15.67,1.89-17.74-4.91-20.76,4.91,5.28,9.44,5.28,9.44-2.83-3.4,2.46-6.61,6,4.15,6,4.15l-9.06,28.32c-9.44.94-12.65,13.21-13.59,16.77s1.88,7.39,3.21,3.43,5.66-3.4,5.66-3.4c-5.48,24.16-17,36.81-20.77,38.32s-1.88,2.64-1.88,2.64c10,4.16,15.66-4.72,17.36-8.11s7-1.7,7-1.7c5.85-2.27-2.27-5.1-2.27-5.1,5.77-8.65,8.88-29.07,8.88-29.07,24.35,3,31.14,22.84,32.46,27.18s-3.21,4.53-3.21,4.53c-1.51,1.89,5.29,3.4,7,1.33s5.85-.76,5.85-.76c6.23,4.15,10.19,0,10.19,0C220.68,438.27,218.79,432.23,218.79,432.23Zm-41.15-40.77,9.06-28.13,11.51,43.8C189.34,393.91,177.64,391.46,177.64,391.46Z"/><path class="cls-2" d="M226.53,381.64s-4.34,2.65-4.16-1.7,2.27-16.8,4.16-18.68.94-9.48,0-10.78c0,0,4-.17,5.85,2.28s13.21-1.92,15.1-2.28,17.37.2,21,2.66c0,0,8.5,0,12.65-2.66A37,37,0,0,1,275.8,369c-5.67,9.62-37.76,49.83-37.76,49.83s-2.83,12.65,10,15.29,17.55-25.48,17.55-25.48,4.72-10.26,13.59-7.59c0,0,.95,1.55-2.26,3.81,0,0-8.87,16.05,1.89,23.79,0,0-10.95-.19-12.65,2.45s-13,15.1-29.83,4.91a26.09,26.09,0,0,0-15.66-7.17s1.32-2.84,2.26-5.1,11.52-27.75,24.92-40.4,17.55-23,17.93-24.54C265.79,358.8,235.21,348.8,226.53,381.64Z"/><path class="cls-2" d="M350.69,426c-3.78.29-4.58-1.69-4.58-1.69V355.78c3.54-1.56,4.82-3.82,3-4.47s-4.39,1.12-4.39,1.12-2,3.4-5.29.52c-4.78-4.17-7.55.94-7.55.94,3.78-.19,4.72,2.65,4.72,2.65l.47,67.77s-1.13,8.06-13.87,9.76-15.48-12.6-15.48-12.6V359.75s-1.32-5.67,5.47-5.48c0,0-3-8.3-10.57-1.51,0,0-1.7,2.08-8.87-1.32s-20,6-9.44,14.91c0,0,1.89-9.25,9.25-5.85v63.81c-2.28.45-7,3.39-5.62,5.09s8.8.38,8.8.38c31.31,23.45,47-.66,47-.66C351.78,431.67,350.69,426,350.69,426Z"/><path class="cls-2" d="M426.62,431.1C421,433,417.18,443.18,390.57,437c0,0-8.78-3.92-12.18-3.92l-.28-11.56V359.75s-1.32-5.67,5.47-5.48c0,0-3-8.3-10.57-1.51,0,0-1.7,2.08-8.87-1.32s-20,6-9.44,14.91c0,0,1.89-9.25,9.25-5.85v73.62s-2.55,4.25-5.57,4.44c0,0,.85,5.85,11.9,0a16.6,16.6,0,0,1,9.91,2.6c4.9,3.15,35.67,27.32,49.45-6.66C429.64,434.5,432.29,429.21,426.62,431.1Z"/><path class="cls-1" d="M220.49,182.06h4.18v13h11.76v2.43H220.49Z"/><path class="cls-1" d="M239.1,182.06h4.18v15.45H239.1Z"/><path class="cls-1" d="M253,196.71a10.35,10.35,0,0,1-4.31-2.84,6.1,6.1,0,0,1,0-8.17,10.46,10.46,0,0,1,4.32-2.84,17.61,17.61,0,0,1,6.16-1,18.21,18.21,0,0,1,5,.66,11,11,0,0,1,3.85,1.92l-2.7,1.74a9.86,9.86,0,0,0-6-1.81,11.76,11.76,0,0,0-4.15.7,6.76,6.76,0,0,0-2.86,1.93,4.33,4.33,0,0,0,0,5.61,6.76,6.76,0,0,0,2.86,1.93,11.54,11.54,0,0,0,4.15.7,9.68,9.68,0,0,0,6-1.84l2.7,1.77a11,11,0,0,1-3.87,1.92,18.28,18.28,0,0,1-5.06.66A17.57,17.57,0,0,1,253,196.71Z"/><path class="cls-1" d="M275.26,196.71a10.48,10.48,0,0,1-4.34-2.85,6.07,6.07,0,0,1,0-8.15,10.48,10.48,0,0,1,4.34-2.85,19.38,19.38,0,0,1,12.41,0A10.4,10.4,0,0,1,292,185.7a6.07,6.07,0,0,1,0,8.17,10.4,10.4,0,0,1-4.34,2.84,19.38,19.38,0,0,1-12.41,0Zm10.26-2.19a6.71,6.71,0,0,0,2.83-1.94,4.31,4.31,0,0,0,0-5.59,6.71,6.71,0,0,0-2.83-1.94,12.07,12.07,0,0,0-8.1,0,6.65,6.65,0,0,0-2.83,1.94,4.31,4.31,0,0,0,0,5.59,6.65,6.65,0,0,0,2.83,1.94,12.07,12.07,0,0,0,8.1,0Z"/><path class="cls-1" d="M308.89,197.51l-4.6-4.52-.87,0h-5.08v4.5h-4.17V182.06h9.25a17.63,17.63,0,0,1,5.1.66,7.44,7.44,0,0,1,3.33,1.9,4.3,4.3,0,0,1-.08,5.94,7.72,7.72,0,0,1-3.56,1.88l5.18,5.07Zm-1.51-12.23a8.68,8.68,0,0,0-4.15-.79h-4.89v6.16h4.89a8.54,8.54,0,0,0,4.15-.81,2.55,2.55,0,0,0,0-4.56Z"/><path class="cls-1" d="M325.25,182.06h9.84a19.6,19.6,0,0,1,6.39,1,9.89,9.89,0,0,1,4.34,2.71,6.08,6.08,0,0,1,0,8.11,9.89,9.89,0,0,1-4.34,2.71,19.6,19.6,0,0,1-6.39,1h-9.84Zm9.64,13a13.16,13.16,0,0,0,4.36-.65,6.38,6.38,0,0,0,2.89-1.85,4.18,4.18,0,0,0,1-2.79,4.22,4.22,0,0,0-1-2.8,6.38,6.38,0,0,0-2.89-1.85,13.16,13.16,0,0,0-4.36-.65h-5.46v10.59Z"/><path class="cls-1" d="M366.75,195.11v2.4H349.87V182.06H366.3v2.4H354.05v4h10.87v2.37H354.05v4.26Z"/><path class="cls-1" d="M394,193.94H382.74l-2.22,3.57h-4.31l10.13-15.45h4.11l10.16,15.45h-4.37Zm-1.38-2.26-4.25-6.75-4.21,6.75Z"/><path class="cls-1" d="M417.87,189.61h4v6.16a15.42,15.42,0,0,1-4.05,1.46,22.75,22.75,0,0,1-4.76.5,17.8,17.8,0,0,1-6.2-1,10.4,10.4,0,0,1-4.34-2.84,6.07,6.07,0,0,1,0-8.17,10.44,10.44,0,0,1,4.35-2.84,18.09,18.09,0,0,1,6.25-1,19.21,19.21,0,0,1,5.15.64,10.93,10.93,0,0,1,3.89,1.87l-2.64,1.77a10.65,10.65,0,0,0-6.2-1.77,12,12,0,0,0-4.23.69,6.62,6.62,0,0,0-2.89,1.92,4.24,4.24,0,0,0-1.05,2.83,4.19,4.19,0,0,0,1.05,2.78,6.92,6.92,0,0,0,2.89,1.94,11.7,11.7,0,0,0,4.2.71,12.42,12.42,0,0,0,4.62-.8Z"/><path class="cls-1" d="M441.28,193.94H430l-2.21,3.57H423.5l10.12-15.45h4.12l10.16,15.45h-4.37Zm-1.39-2.26-4.24-6.75-4.21,6.75Z"/><path class="cls-1" d="M469.5,182.06l-9.8,15.45h-4.12l-9.84-15.45h4.54L457.77,194l7.55-11.92Z"/><path class="cls-1" d="M488.11,195.11v2.4H471.24V182.06h16.42v2.4H475.42v4h10.86v2.37H475.42v4.26Z"/><path class="cls-3" d="M281.09,328.88s-29.13-39.5-54-21.52c-.74.53-16,16.57,6.79,23.65,0,0-13.12,13.6-20.45-5.09-6.16-15.73,16.06-26.11,21.87-26.2C241.63,299.61,257.4,295.61,281.09,328.88Z"/><path class="cls-3" d="M228.32,296.7S177.64,282.92,127,315.29c-50.9,32.51-76.73,1.85-64.56-14.65,0,0,13.59-6.87,5.66,4.46,0,0-6.22,0-4,5.38s9.47,24.86,45.59,9.34S153.57,283.48,228.32,296.7Z"/><path class="cls-3" d="M297.29,328.88s29.13-39.5,54-21.52c.74.53,16,16.57-6.79,23.65,0,0,13.12,13.6,20.45-5.09,6.16-15.73-16.06-26.11-21.87-26.2C336.75,299.61,321,295.61,297.29,328.88Z"/><path class="cls-3" d="M350.06,296.7s50.68-13.78,101.37,18.59c50.9,32.51,76.73,1.85,64.56-14.65,0,0-13.59-6.87-5.67,4.46,0,0,6.23,0,4,5.38s-9.47,24.86-45.59,9.34S424.81,283.48,350.06,296.7Z"/><path class="cls-3" d="M266.83,157.76s37-51.35-3.3-83.06C215.58,37,175.58,92.85,196.91,118.87c16.4,20,40,14.53,42.62-3.43,1.72-11.67-13.38-14.69-14.51-11.29,0,0,2.17,18.12-12.7,13.59,0,0-22-4.91-6.94-34.35S299.58,69,266.83,157.76Z"/><path class="cls-3" d="M235.6,139.26s-32.86,3.78-48.34-16.61-14.72-27.18-9.06-31.34c0,0-15.48,2.17-13.59,24.12,0,0-17.69-23-.16-52.43,0,0,8-6.37,10.21,0s9.63,4.1,12,.42,11.18-2.26,11,3.83,5.1,2.12,5.38-1.7S191,36,166.31,53.75s-22.37,54-3.4,72.39S212.86,148.7,235.6,139.26Z"/><path class="cls-3" d="M311.11,157.76s-37-51.35,3.31-83.06C362.36,37,402.37,92.85,381,118.87c-16.4,20-40,14.53-42.62-3.43-1.72-11.67,13.38-14.69,14.52-11.29,0,0-2.17,18.12,12.69,13.59,0,0,22-4.91,6.94-34.35S278.36,69,311.11,157.76Z"/><path class="cls-3" d="M342.35,139.26s32.85,3.78,48.33-16.61,14.72-27.18,9.06-31.34c0,0,15.48,2.17,13.59,24.12,0,0,17.69-23,.16-52.43,0,0-7.94-6.37-10.21,0s-9.63,4.1-12,.42-11.19-2.26-11.05,3.83-5.09,2.12-5.38-1.7S386.91,36,411.63,53.75s22.37,54,3.4,72.39S365.08,148.7,342.35,139.26Z"/></svg>